<?xml version="1.0" encoding="UTF-8"?>
<svg width="17px" height="17px" viewBox="0 0 17 17" version="1.1" xmlns="http://www.w3.org/2000/svg" xmlns:xlink="http://www.w3.org/1999/xlink">
    <!-- Generator: sketchtool 49 (51002) - http://www.bohemiancoding.com/sketch -->
    <title>81E706DD-577D-4CDE-BEA6-D09E1CF42A45</title>
    <desc>Created with sketchtool.</desc>
    <defs></defs>
    <g id="Page-1" stroke="none" stroke-width="1" fill="none" fill-rule="evenodd">
        <g id="j-footer" transform="translate(-1953.000000, -341.000000)" fill="#FFFFFF">
            <g id="Stacked-Group-3" transform="translate(413.000000, 244.000000)">
                <g id="Stacked-Group-6" transform="translate(0.000000, 70.000000)">
                    <g id="Group-12" transform="translate(1540.000000, 0.000000)">
                        <g id="Group" transform="translate(0.000000, 27.000000)">
                            <path d="M13.3972143,5.27971429 L13.3972143,3.37085714 C13.2976429,3.35992857 13.0960714,3.34292857 12.7912857,3.32107143 C12.4865,3.298 12.1416429,3.28707143 11.7530714,3.28707143 C10.9346429,3.28707143 10.2704286,3.53114286 9.76164286,4.01807143 C9.25285714,4.505 8.99785714,5.20321429 8.99785714,6.11028571 L8.99785714,7.68642857 L7.15457143,7.68642857 L7.15457143,9.82842857 L8.99785714,9.82842857 L8.99785714,15.3072857 L11.2054286,15.3072857 L11.2054286,9.82842857 L13.0487143,9.82842857 L13.3146429,7.68642857 L11.2054286,7.68642857 L11.2054286,6.32521429 C11.2054286,6.01557143 11.2722143,5.76421429 11.4045714,5.56992857 C11.5381429,5.37685714 11.8259286,5.27971429 12.2679286,5.27971429 L13.3972143,5.27971429 Z M16.1281429,0.871857143 C16.7097857,1.4535 17,2.14807143 17,2.95557143 L17,14.0456429 C17,14.8531429 16.7097857,15.5477143 16.1281429,16.1293571 C15.5477143,16.7097857 14.8519286,17 14.0444286,17 L2.95435714,17 C2.14685714,17 1.45228571,16.7097857 0.871857143,16.1293571 C0.290214286,15.5477143 0,14.8531429 0,14.0456429 L0,2.95557143 C0,2.14807143 0.290214286,1.4535 0.871857143,0.871857143 C1.45228571,0.291428571 2.14685714,0 2.95435714,0 L14.0444286,0 C14.8519286,0 15.5477143,0.291428571 16.1281429,0.871857143 Z" id="Fill-1"></path>
                        </g>
                    </g>
                </g>
            </g>
        </g>
    </g>
</svg>