<?xml version="1.0" encoding="UTF-8"?>
<svg width="14px" height="13px" viewBox="0 0 14 13" version="1.1" xmlns="http://www.w3.org/2000/svg" xmlns:xlink="http://www.w3.org/1999/xlink">
    <!-- Generator: sketchtool 49 (51002) - http://www.bohemiancoding.com/sketch -->
    <title>F40D6B42-3145-455B-B2E6-E387F0B6B684</title>
    <desc>Created with sketchtool.</desc>
    <defs></defs>
    <g id="Page-1" stroke="none" stroke-width="1" fill="none" fill-rule="evenodd">
        <g id="j-footer" transform="translate(-412.000000, -573.000000)" fill="#E9E9E9">
            <g id="Stacked-Group-2-Copy-3" transform="translate(412.000000, 572.000000)">
                <g id="Stacked-Group">
                    <g id="earth" transform="translate(0.000000, 1.000000)">
                        <path d="M9.93710145,3.23286151 L9.63954959,3.2782442 L9.62971062,3.33509619 L9.63310196,3.33509619 L9.86793151,3.31295035 L9.93710145,3.23286151 Z M1.02585223,4.07326755 L1.0180472,4.08243538 L1.0180472,4.13803192 C1.02063907,4.13205492 1.02324075,4.12608306 1.02585223,4.12011635 L1.02585223,4.07326755 Z M1.07257079,4.01839167 C1.05707231,4.05206171 1.04194146,4.0859623 1.02720963,4.12011635 L1.02720963,4.24651814 C1.0912412,4.10279815 1.16108784,3.96351055 1.23556995,3.82693198 L1.07257079,4.01839167 Z M13.198982,6.362795 C13.198982,6.3846103 13.2,6.40675613 13.2,6.42857143 C13.2,6.8119918 13.1643683,7.18780988 13.0981953,7.55205923 C13.0741015,7.68096781 13.0476323,7.80756264 13.0157335,7.93415747 C12.8939071,8.43128181 12.710998,8.90493819 12.4778652,9.34917697 C11.3827857,11.4292325 9.16106741,12.8571429 6.6,12.8571429 C2.96149931,12.8571429 0,9.97421829 0,6.42857143 C0,4.95273352 0.514453185,3.59192173 1.37741786,2.50479275 C1.60512109,2.21821908 1.85725744,1.94949428 2.13145149,1.70291532 C3.307296,0.646856614 4.87814284,0 6.6,0 C8.30726516,0 9.86623477,0.635287896 11.0393645,1.67581146 C11.1442234,1.76770014 11.2436526,1.86454684 11.3417245,1.96238514 C11.3759988,1.99742183 11.4106124,2.03212798 11.4438686,2.06716467 C11.9593398,2.61056389 12.3821687,3.23957163 12.681814,3.93038937 C12.6991208,3.97038408 12.7150702,4.01302307 12.732377,4.05301778 C12.9577048,4.60434984 13.1073577,5.19171019 13.1684405,5.80386065 C13.1867654,5.98697693 13.1976246,6.17439016 13.198982,6.362795 Z M11.956625,3.79354796 L11.956625,4.05433992 L12.0747185,4.03880479 L12.1371587,4.04012693 C12.0920253,3.94328023 12.0455345,3.84643353 11.9953108,3.75090897 L11.956625,3.79354796 Z M11.0023754,2.6713823 L10.7424341,2.80062141 L10.7689033,2.88457725 L11.1839272,2.88821313 L11.3033781,2.71534343 C11.2076816,2.60163945 11.106895,2.49057976 11.0037328,2.38348648 L11.0023754,2.6713823 Z M3.04090699,1.95742712 L3.04090699,2.07476697 L3.33919482,2.07476697 L3.4012957,1.99477755 L3.4012957,1.90321941 L3.18411229,1.90321941 L3.17359247,1.94718054 L3.04090699,1.94718054 L3.04090699,1.95742712 Z M3.25300015,2.24400079 L3.04090699,2.30349706 L3.09791763,2.36927348 L3.39620546,2.35109407 C3.39620546,2.35109407 3.40672528,2.2221855 3.39620546,2.2221855 C3.38432824,2.2221855 3.25300015,2.24400079 3.25300015,2.24400079 Z M9.93710145,3.23286151 L9.95378683,3.23031665 L10.172667,2.92820784 L10.3993522,2.89085741 L10.6033009,2.92060554 L10.6776184,2.92060554 L10.6365571,2.63766775 L10.388493,2.73583658 L10.3009409,2.52429431 L10.1567176,2.50479275 L10.1302483,2.35902691 L10.2480025,2.23507635 L10.5276261,2.12765254 L10.5992288,2.00271039 C9.53095789,1.08712897 8.13250039,0.529516758 6.6,0.529516758 C5.27043036,0.529516758 4.04164739,0.948965426 3.04226438,1.65796258 L3.34699985,1.65531831 L3.48375752,1.72869703 L3.73962672,1.78323527 L3.75930896,1.88107358 L4.16754589,1.89660871 L4.11189264,1.76902228 L3.75014654,1.75844516 L3.8349838,1.68242216 L3.80444239,1.58821974 L3.47697054,1.58821974 L3.8349838,1.32874992 L4.17704766,1.32874992 L4.33722042,1.54425861 L4.60496684,1.55979375 L4.76547894,1.4074172 L4.88730526,1.46559133 L4.66469227,1.6771336 C4.66469227,1.6771336 4.35859941,1.68242216 4.37319142,1.68242216 C4.38914083,1.68242216 4.39830325,1.88768427 4.39830325,1.88768427 L4.77090853,1.87743769 L4.81061237,1.780591 L5.06783896,1.76505586 L5.09804103,1.61796787 L4.9470307,1.59317776 L4.99759371,1.46162491 L5.11263304,1.42658822 L5.51577973,1.44608977 L5.29316674,1.64242745 L5.3287984,1.79480399 L5.56091316,1.82818801 L5.54632115,1.55450519 L5.76757674,1.44080122 L6.15986426,1.39717062 L6.7286133,1.64242745 L6.7286133,1.85264758 L6.91016505,1.89793085 L6.81888015,2.06452039 L6.56301095,2.06452039 L6.48597871,2.25556951 L5.90026222,2.12005024 L6.36143761,1.88107358 L6.18531544,1.73530773 L5.78759833,1.78422688 L5.75298473,1.81926357 L5.75162733,1.81926357 L5.7451797,1.82686587 L5.63115841,1.94321412 L5.44146229,1.95874926 L5.4560543,2.0503074 L5.52222736,2.07741125 L5.51985192,2.10848152 L5.36578744,2.12897468 L5.35526762,2.21689694 L5.20832948,2.22350764 L5.18186025,2.0503074 L4.91648928,2.12897468 L4.37692426,2.43637205 L4.4380071,2.65320288 L4.58901743,2.74872744 L4.89002005,2.79004429 L4.89002005,3.12454551 L5.03051057,3.10273022 L5.15912386,2.84061612 L5.47980873,2.74244728 L5.47980873,2.34084749 L5.65898504,2.20929464 L6.089619,2.30845508 L6.06043498,2.57321346 L6.17581367,2.57321346 L6.49276569,2.42215905 L6.5073577,2.76955113 L6.73913312,2.90639254 L6.72997069,3.1129768 L6.5087151,3.18668606 L6.52330711,3.25510676 L6.78969613,3.37244662 L6.78426654,3.51457658 L6.70757365,3.52085675 L6.70621626,3.51722086 L6.37060003,3.41640775 L6.35600802,3.31195875 L6.45441925,3.24585179 L6.45441925,3.14900509 L6.34820299,3.12322338 L6.32173377,3.21246777 L6.13610983,3.23957163 L6.11744563,3.23296093 L6.11744563,3.24221591 L6.05398735,3.25246248 L6.0010489,3.14900509 L5.93996607,3.12322338 L5.80863798,3.12322338 L5.74789449,3.17115092 L5.74789449,3.27692206 L5.86157643,3.31295035 L5.97322227,3.32848549 L5.94777109,3.34005421 L5.84596637,3.44979176 L5.80083295,3.39459245 L5.70276107,3.36980234 L5.43501465,3.61505917 L5.46928891,3.64348516 L5.0742866,3.85668011 L4.70168132,4.23481193 L4.67521209,4.40272361 L4.30158877,4.64170027 L4.11732223,4.82382495 L4.13700447,5.18642163 L3.88011723,5.06908177 L3.88249267,4.85720896 L3.16816289,4.85720896 L2.7982724,5.03933364 L2.63674225,5.3285516 L2.57430202,5.55695115 L2.67780349,5.77907054 L2.96930433,5.81410723 L3.43183711,5.51199841 L3.47289835,5.66173068 L3.33105044,5.9212005 L3.68363412,5.98069677 L3.71960512,6.51120513 L4.20215949,6.58987241 L4.50960975,6.24545515 L4.88221502,6.31883387 L5.01320376,6.49566999 L5.36985963,6.47517684 L5.38037945,6.37171944 L5.57686256,6.46592186 L5.79811816,6.8043895 L6.17988586,6.80967806 L6.32173377,7.04964633 L6.34175536,7.34415284 L6.7645843,7.50016527 L7.29736233,7.50545382 L7.45380225,7.75467707 L7.69100725,7.82937793 L7.64451643,8.03497058 L7.38627179,8.35625041 L7.31059695,9.06656971 L7.07610674,9.24605011 L6.7286133,9.235473 L6.61323461,9.43181067 L6.69942928,9.79969591 L6.32173377,10.2710385 L6.2009255,10.4868778 L5.84053679,10.6544589 L5.60333179,10.6894956 L5.59383002,10.7876644 L5.75977171,10.8339393 L5.73975012,10.9387188 L5.59145457,11.0795267 L5.68138208,11.1892642 L5.86055838,11.1942223 L5.85105661,11.3284194 L5.80354774,11.4616249 L5.78895573,11.5687182 L6.05262996,11.7868712 L6.01801635,11.899253 L5.65762764,11.8926423 L5.29825698,11.5882197 L5.01999075,11.1089443 L5.05833719,10.6481788 L4.84624402,10.3731738 L4.93243869,9.90711972 L4.80654018,9.87340517 L4.80654018,8.8622992 C4.80654018,8.8622992 4.4539565,8.60282938 4.43393491,8.60282938 C4.41425266,8.60282938 4.24865032,8.55919878 4.24865032,8.55919878 L4.21267932,8.36781913 L3.75387938,7.80888478 L3.8003702,7.60758908 L3.81496221,7.27936802 L4.13191424,7.06385932 L4.08678081,6.69597409 L3.62289064,6.66225954 L3.26080518,6.25933761 L3.00493599,6.1909169 L2.83797625,6.16149931 L2.85799784,6.01540292 L2.64726207,5.98565479 L2.64726207,6.06828849 L2.11821687,5.9420242 L1.90476631,5.62438025 L1.99231837,5.47068156 L1.65704149,4.99537251 L1.60003085,4.64698883 L1.46463057,4.64698883 L1.509764,4.98512593 L1.74187876,5.33384015 L1.71676693,5.47068156 L1.51926577,5.44093343 L1.27798859,5.04065578 L1.27798859,4.57327957 L1.02720963,4.45560918 L1.02720963,4.24651814 C1.02414209,4.25340338 1.02108791,4.26029868 1.0180472,4.26720434 L1.0180472,4.13803192 C0.712802185,4.84194352 0.543637205,5.61705791 0.543637205,6.42857143 C0.543637205,9.68235605 3.25944779,12.3292788 6.6,12.3292788 C8.49424649,12.3292788 10.187259,11.47716 11.2979485,10.147088 L11.0977325,10.147088 L11.0977325,9.75474317 L10.8669752,9.45263436 L10.8669752,8.97996959 L10.690853,8.80941363 L10.676261,8.61340649 L10.9002314,8.19627157 L10.4746876,7.46545911 L10.5252507,6.97097904 L10.1421256,6.93098433 L10.001635,6.79414292 L9.74440845,6.79414292 L9.61443776,6.91148278 L9.16106741,6.91148278 L9.1464754,6.95147749 L8.89332099,6.95147749 L8.31540953,6.30858729 L8.32083912,5.80881867 L8.41619621,5.77411251 L8.45182786,5.5830634 L8.31540953,5.5830634 L8.25975629,5.38143717 L8.92895265,4.91141667 L8.92895265,4.57856812 L9.25642449,4.40007933 L9.38910998,4.41429232 L9.65957119,4.41429232 L9.87030696,4.30356317 L10.5503625,4.2516692 L10.5503625,4.59013684 L11.0858553,4.72301183 L11.1917322,4.79672109 L11.2901435,4.79672109 L11.2901435,4.61195214 L11.6003085,4.58352615 L11.8945241,4.79672109 L12.3770785,4.79672109 L12.4099954,4.76697296 C12.3624865,4.60798572 12.3081907,4.45197329 12.2471078,4.29959675 L11.9315132,4.30455477 L11.7723585,4.13565148 L11.7421564,3.86296027 L11.5802869,3.94956039 L11.4927348,4.28141733 L11.259602,4.03880479 L11.2501003,3.8100747 L11.0234151,3.62034772 L10.9399352,3.53903616 L10.6776184,3.53903616 L10.7610983,3.76743571 L11.0766929,3.93799167 L11.1309887,3.99484366 L11.0634583,4.02822767 L11.0658337,4.20903021 L10.9121086,4.27117075 L10.7811199,4.24274476 L10.698658,4.13036293 L10.9121086,4.14060951 L10.9704766,4.06590864 L10.497424,3.75454485 L10.461453,3.622992 L10.2693815,3.79222582 L10.0745951,3.75322271 L9.77732531,4.12771865 L9.71929662,4.27513717 L9.52960049,4.29166391 L9.24861947,4.29298605 L9.08165973,4.21696305 L9.03245411,3.89138626 L9.09217955,3.73801811 L9.37723276,3.67719971 L9.68875521,3.73801811 L9.72710165,3.57010643 L9.59441617,3.53903616 L9.62971062,3.33509619 L9.45697979,3.33509619 L9.47666204,3.13214782 L9.62393953,3.10239968 L9.61070492,3.00687512 L9.47394725,2.92291928 L9.37859016,2.85978714 L9.37859016,2.76690686 L9.43424341,2.68295101 L9.63310196,2.64427844 L9.68366497,2.87928869 L9.78954188,3.04587823 L9.85978714,3.12454551 L9.98840043,3.17346467 L9.93710145,3.23286151 Z M1.02585223,4.07326755 L1.07257079,4.01839167 C1.12561804,3.90314798 1.1829722,3.79060515 1.24337498,3.67984399 L1.49517199,3.38137106 L1.48465217,3.27427778 C1.3984575,3.40616117 1.31904982,3.54168044 1.24337498,3.67984399 L1.02585223,3.93534739 L1.02585223,4.07326755 Z M9.44238778,3.08587294 L9.19296622,3.25609837 L9.05247571,3.25609837 L9.05247571,3.13479209 L9.17328397,2.94506512 L9.33617153,2.90870629 L9.4529076,2.95795597 L9.44238778,3.08587294 Z M6.08995835,3.62662788 L6.15884621,3.62530574 L6.2368965,3.64084088 L6.20397964,3.70926159 L6.11778498,3.71587228 L6.10047817,3.79718384 L6.03430511,3.83717855 L5.92673145,3.84610299 C5.92401666,3.82164342 5.92164122,3.803464 5.92164122,3.803464 L5.88057998,3.803464 L5.88057998,3.71587228 L6.05398735,3.71587228 L6.08995835,3.62662788 Z M5.64167824,3.78429299 L5.69868888,3.71587228 L5.77436372,3.77404641 L5.76112911,3.86031599 L5.6352306,3.87089311 L5.64167824,3.78429299 Z M3.60015425,2.92060554 L3.69720808,3.11562107 L3.85229061,3.06769353 L3.90115687,2.88061083 L3.75795157,2.84689628 L3.60015425,2.92060554 Z M4.44207928,3.36220004 L4.38914083,3.36220004 L4.38914083,3.2924572 L4.15159648,3.2924572 L3.97818911,3.36220004 L3.94357551,3.44747802 L4.07897578,3.48350631 L4.44207928,3.48350631 L4.44207928,3.36220004 Z M4.60768163,3.53143386 L4.40373284,3.53143386 L4.40373284,3.72611886 L4.51741478,3.7056257 L4.60768163,3.64877372 L4.60768163,3.53143386 Z M4.50553756,3.48350631 L4.63041802,3.45375818 L4.50553756,3.34402063 L4.50553756,3.48350631 Z M4.5625482,3.76644411 L4.42341509,3.78561513 L4.40475089,3.82957625 L4.31346599,3.83717855 L4.28292457,3.96509552 L4.47635354,3.96509552 L4.5625482,3.88113968 L4.5625482,3.76644411 Z M4.08270862,3.53143386 L3.94357551,3.67852185 L3.92117847,3.82560984 L4.02705538,3.88113968 L4.28292457,3.53143386 L4.08270862,3.53143386 Z M4.90189727,3.72611886 L4.67283665,3.66034243 L4.65688724,3.66034243 L4.65688724,3.76644411 L4.7098257,3.84114497 L4.90189727,3.84114497 L4.90189727,3.72611886 Z M4.72441771,3.56878429 L4.79873515,3.62828056 L4.87271325,3.56878429 L4.78007095,3.51325445 L4.72441771,3.56878429 Z M12.4751504,5.09354135 L12.5189264,5.17353077 C12.510782,5.13882462 12.502977,5.10511007 12.4948326,5.07304819 L12.4751504,5.09354135 Z" id="Combined-Shape"></path>
                    </g>
                </g>
            </g>
        </g>
    </g>
</svg>