<?xml version="1.0" encoding="UTF-8"?>
<svg width="17px" height="17px" viewBox="0 0 17 17" version="1.1" xmlns="http://www.w3.org/2000/svg" xmlns:xlink="http://www.w3.org/1999/xlink">
    <!-- Generator: sketchtool 49 (51002) - http://www.bohemiancoding.com/sketch -->
    <title>A210F6A4-84C0-483D-B46B-5A574078E96E</title>
    <desc>Created with sketchtool.</desc>
    <defs></defs>
    <g id="Page-1" stroke="none" stroke-width="1" fill="none" fill-rule="evenodd">
        <g id="j-footer" transform="translate(-1979.000000, -368.000000)" fill="#FFFFFF">
            <g id="Stacked-Group-3" transform="translate(413.000000, 244.000000)">
                <g id="Stacked-Group-6" transform="translate(0.000000, 70.000000)">
                    <g id="Group-12" transform="translate(1540.000000, 0.000000)">
                        <g id="Group" transform="translate(0.000000, 27.000000)">
                            <path d="M38.4512857,38.0560714 C38.4512857,37.8897143 38.4233571,37.7658571 38.3687143,37.6820714 C38.3128571,37.5995 38.2290714,37.5582143 38.1197857,37.5582143 C38.0080714,37.5582143 37.9279286,37.5995 37.8781429,37.6820714 C37.8283571,37.7658571 37.8040714,37.8897143 37.8040714,38.0560714 L37.8040714,38.3875714 L38.4512857,38.3875714 L38.4512857,38.0560714 Z M38.1355714,36.9607857 C38.2897857,36.9607857 38.4342857,36.9911429 38.5678571,37.0518571 C38.7002143,37.1137857 38.8107143,37.2048571 38.8993571,37.3250714 C38.9661429,37.4246429 39.0159286,37.5448571 39.0487143,37.6820714 C39.0827143,37.8217143 39.0985,37.9892857 39.0985,38.1884286 L39.0985,38.9364286 L37.8040714,38.9364286 L37.8040714,39.5666429 C37.8040714,39.733 37.8283571,39.8568571 37.8781429,39.9406429 C37.9279286,40.0232143 38.0141429,40.0645 38.1355714,40.0645 C38.2132857,40.0645 38.2764286,40.0438571 38.3262143,39.9989286 C38.376,39.954 38.4063571,39.8884286 38.4185,39.7997857 C38.4282143,39.7888571 38.4342857,39.7475714 38.4342857,39.6747143 L38.4342857,39.3675 L39.0985,39.3675 L39.0985,39.4670714 L39.0985,39.7245 C39.0985,39.7973571 39.0924286,39.8495714 39.0827143,39.8823571 C39.0705714,39.9491429 39.0535714,40.0147143 39.0329286,40.0815 C39.0098571,40.1482857 38.9770714,40.2138571 38.9321429,40.2806429 C38.8435,40.4032857 38.733,40.4967857 38.6006429,40.5623571 C38.4682857,40.6291429 38.3189286,40.6619286 38.1525714,40.6619286 C37.9740714,40.6619286 37.8198571,40.6327857 37.6875,40.5708571 C37.5551429,40.5101429 37.4434286,40.4190714 37.356,40.2976429 C37.2892143,40.209 37.2357857,40.0936429 37.1981429,39.9491429 C37.1592857,39.8046429 37.1398571,39.6395 37.1398571,39.4500714 L37.1398571,38.1884286 C37.1398571,37.9892857 37.1568571,37.8217143 37.1896429,37.6820714 C37.2224286,37.5448571 37.2722143,37.4246429 37.339,37.3250714 C37.4385714,37.2048571 37.5551429,37.1137857 37.6875,37.0518571 C37.8198571,36.9911429 37.9704286,36.9607857 38.1355714,36.9607857 Z M35.8612143,30.2032857 L35.8612143,33.0920714 C35.8612143,33.2147143 35.8660714,33.3203571 35.8782143,33.4077857 C35.8891429,33.4964286 35.9049286,33.5692857 35.928,33.6239286 C35.9607857,33.7235 36.013,33.7951429 36.0858571,33.8388571 C36.1562857,33.8837857 36.2485714,33.9056429 36.3590714,33.9056429 C36.4805,33.9056429 36.6031429,33.868 36.7245714,33.7890714 C36.846,33.7125714 36.9735,33.6020714 37.1070714,33.4575714 L37.1070714,33.8558571 L37.7700714,33.8558571 L37.7700714,30.2032857 L37.1070714,30.2032857 L37.1070714,32.9925 C37.0281429,33.0920714 36.9577143,33.1673571 36.8909286,33.2171429 C36.8241429,33.2669286 36.7573571,33.2912143 36.6917857,33.2912143 C36.6468571,33.2912143 36.6104286,33.2802857 36.5837143,33.2584286 C36.5545714,33.2365714 36.5424286,33.1977143 36.5424286,33.1418571 C36.5302857,33.1309286 36.5254286,33.1066429 36.5254286,33.0677857 L36.5254286,32.8929286 L36.5254286,30.2032857 L35.8612143,30.2032857 Z M35.9777857,39.5836429 L35.9777857,38.0390714 C35.9777857,37.8739286 35.9547143,37.7525 35.911,37.6747857 C35.8660714,37.5970714 35.7944286,37.5582143 35.6948571,37.5582143 C35.6402143,37.5582143 35.5843571,37.5703571 35.5297143,37.591 C35.4738571,37.6140714 35.4240714,37.6529286 35.3803571,37.7075714 L35.3803571,39.9151429 C35.4240714,39.971 35.4738571,40.0098571 35.5297143,40.0317143 C35.5843571,40.0547857 35.6402143,40.0645 35.6948571,40.0645 C35.7944286,40.0645 35.8660714,40.0268571 35.911,39.9491429 C35.9547143,39.8714286 35.9777857,39.75 35.9777857,39.5836429 Z M36.3760714,37.0603571 C36.4635,37.1259286 36.5302857,37.2315714 36.5752143,37.3748571 C36.5970714,37.4416429 36.6128571,37.5363571 36.625,37.6577857 C36.6359286,37.7792143 36.642,37.9237143 36.642,38.0888571 L36.642,39.5338571 C36.642,39.7002143 36.6359286,39.8447143 36.625,39.9649286 C36.6128571,40.0875714 36.5970714,40.1871429 36.5752143,40.2636429 C36.5302857,40.3972143 36.4635,40.4967857 36.3760714,40.5623571 C36.2874286,40.6291429 36.1769286,40.6619286 36.0445714,40.6619286 C35.9328571,40.6619286 35.8199286,40.6291429 35.7033571,40.5623571 C35.588,40.4967857 35.4799286,40.3972143 35.3803571,40.2636429 L35.3803571,40.6121429 L34.7161429,40.6121429 L34.7161429,35.7647143 L35.3803571,35.7647143 L35.3803571,37.3590714 C35.4799286,37.2255 35.5843571,37.1259286 35.6948571,37.0603571 C35.8053571,36.9935714 35.9219286,36.9607857 36.0445714,36.9607857 C36.1769286,36.9607857 36.2874286,36.9935714 36.3760714,37.0603571 Z M34.1102143,33.1673571 C34.0604286,33.0835714 34.0349286,32.9597143 34.0349286,32.7933571 L34.0349286,31.2657857 C34.0349286,31.0897143 34.0604286,30.9585714 34.1102143,30.876 C34.16,30.7934286 34.2389286,30.7509286 34.3506429,30.7509286 C34.4611429,30.7509286 34.5412857,30.7934286 34.5910714,30.876 C34.6408571,30.9585714 34.6663571,31.0897143 34.6663571,31.2657857 L34.6663571,32.7933571 C34.6663571,32.9597143 34.6408571,33.0835714 34.5910714,33.1673571 C34.5412857,33.2499286 34.4611429,33.2912143 34.3506429,33.2912143 C34.2389286,33.2912143 34.16,33.2499286 34.1102143,33.1673571 Z M33.3707143,31.3823571 L33.3707143,32.661 C33.3707143,32.8601429 33.3877143,33.0313571 33.4205,33.1746429 C33.4545,33.3203571 33.5091429,33.4357143 33.5868571,33.5243571 C33.6742857,33.6457857 33.7823571,33.7392857 33.9110714,33.8060714 C34.0373571,33.8728571 34.1842857,33.9056429 34.3506429,33.9056429 C34.517,33.9056429 34.6627143,33.8728571 34.7902143,33.8060714 C34.9177143,33.7392857 35.0257857,33.6457857 35.1144286,33.5243571 C35.1909286,33.4357143 35.2467857,33.3203571 35.2807857,33.1746429 C35.3135714,33.0313571 35.3305714,32.8601429 35.3305714,32.661 L35.3305714,31.3823571 C35.3305714,31.1953571 35.3135714,31.029 35.2807857,30.8845 C35.2467857,30.7412143 35.1909286,30.6246429 35.1144286,30.536 C35.0257857,30.4145714 34.9177143,30.3198571 34.7902143,30.2530714 C34.6627143,30.1875 34.517,30.1535 34.3506429,30.1535 C34.1842857,30.1535 34.0373571,30.1875 33.9110714,30.2530714 C33.7823571,30.3198571 33.6742857,30.4145714 33.5868571,30.536 C33.5091429,30.6246429 33.4545,30.7412143 33.4205,30.8845 C33.3877143,31.029 33.3707143,31.1953571 33.3707143,31.3823571 Z M33.5042857,39.7657857 L33.5042857,37.0105714 L34.1515,37.0105714 L34.1515,40.6121429 L33.5042857,40.6121429 L33.5042857,40.2138571 C33.3707143,40.3692857 33.2432143,40.4834286 33.1217857,40.5550714 C33.0003571,40.6267143 32.8777143,40.6619286 32.7575,40.6619286 C32.6457857,40.6619286 32.5547143,40.6412857 32.4830714,40.5963571 C32.4102143,40.5526429 32.358,40.4858571 32.3252143,40.3972143 C32.3130714,40.3425714 32.3033571,40.2697143 32.2924286,40.1810714 C32.2802857,40.0936429 32.2754286,39.988 32.2754286,39.8653571 L32.2754286,37.0105714 L32.9226429,37.0105714 L32.9226429,39.6662143 L32.9226429,39.8410714 C32.9226429,39.8799286 32.9275,39.9042143 32.9396429,39.9151429 C32.9396429,39.971 32.953,40.0098571 32.9809286,40.0317143 C33.0088571,40.0547857 33.0440714,40.0645 33.089,40.0645 C33.1557857,40.0645 33.2213571,40.0402143 33.2881429,39.9904286 C33.3549286,39.9406429 33.4253571,39.8653571 33.5042857,39.7657857 Z M31.6112143,28.9586429 L30.8316429,28.9586429 C30.9081429,29.1796429 30.9882857,29.4042857 31.0720714,29.6313571 C31.1546429,29.8584286 31.2347857,30.0879286 31.3125,30.3198571 C31.423,30.6635 31.5165,30.9622143 31.5954286,31.216 C31.6719286,31.471 31.7277857,31.6871429 31.7605714,31.8632143 L31.7605714,33.8558571 L32.4915714,33.8558571 L32.4915714,31.8632143 L33.3707143,28.9586429 L32.6239286,28.9586429 L32.1260714,30.8845 L31.6112143,28.9586429 Z M29.9015,35.7647143 L32.1758571,35.7647143 L32.1758571,36.4459286 L31.3950714,36.4459286 L31.3950714,40.6121429 L30.6652857,40.6121429 L30.6652857,36.4459286 L29.9015,36.4459286 L29.9015,35.7647143 Z M39.7129286,40.8282857 C39.8125,40.4190714 39.8707857,39.9965 39.8877857,39.5581429 C39.9035714,39.1222143 39.9120714,38.6923571 39.9120714,38.2722143 C39.9120714,37.8520714 39.9035714,37.4234286 39.8877857,36.9850714 C39.8707857,36.5491429 39.8173571,36.1253571 39.7299286,35.7149286 C39.6631429,35.4283571 39.5222857,35.1879286 39.3061429,34.9936429 C39.09,34.7993571 38.8374286,34.6864286 38.5508571,34.6524286 C37.8866429,34.5759286 37.2139286,34.5322143 36.5339286,34.5200714 C35.8527143,34.5091429 35.1751429,34.5030714 34.5,34.5030714 C33.8236429,34.5030714 33.1497143,34.5091429 32.4745714,34.5200714 C31.7982143,34.5322143 31.1242857,34.5759286 30.4491429,34.6524286 C30.1613571,34.6864286 29.9124286,34.7993571 29.7023571,34.9936429 C29.4910714,35.1879286 29.3538571,35.4283571 29.2870714,35.7149286 C29.1875,36.1253571 29.1292143,36.5491429 29.1134286,36.9850714 C29.0964286,37.4234286 29.0879286,37.8520714 29.0879286,38.2722143 C29.0879286,38.6923571 29.0964286,39.1222143 29.1134286,39.5581429 C29.1292143,39.9965 29.1875,40.4190714 29.2870714,40.8282857 C29.3417143,41.1172857 29.4777143,41.3577143 29.6938571,41.5507857 C29.91,41.7450714 30.1613571,41.858 30.4491429,41.8907857 C31.1242857,41.9697143 31.7982143,42.0134286 32.4745714,42.0243571 C33.1497143,42.0352857 33.8236429,42.0401429 34.5,42.0401429 C35.1751429,42.0401429 35.8490714,42.0352857 36.5254286,42.0243571 C37.2005714,42.0134286 37.8745,41.9697143 38.5508571,41.8907857 C38.8374286,41.858 39.0863571,41.7450714 39.2976429,41.5507857 C39.5077143,41.3577143 39.6461429,41.1172857 39.7129286,40.8282857 Z M42.1281429,27.8706429 C42.7097857,28.4522857 43,29.1468571 43,29.9543571 L43,41.0444286 C43,41.8531429 42.7097857,42.5465 42.1281429,43.1281429 C41.5477143,43.7085714 40.8531429,44 40.0444286,44 L28.9555714,44 C28.1468571,44 27.4522857,43.7085714 26.8718571,43.1281429 C26.2902143,42.5465 26,41.8531429 26,41.0444286 L26,29.9543571 C26,29.1468571 26.2902143,28.4522857 26.8718571,27.8706429 C27.4522857,27.2902143 28.1468571,27 28.9555714,27 L40.0444286,27 C40.8531429,27 41.5477143,27.2902143 42.1281429,27.8706429 Z" id="Fill-4"></path>
                        </g>
                    </g>
                </g>
            </g>
        </g>
    </g>
</svg>