<?xml version="1.0" encoding="UTF-8"?>
<svg width="17px" height="17px" viewBox="0 0 17 17" version="1.1" xmlns="http://www.w3.org/2000/svg" xmlns:xlink="http://www.w3.org/1999/xlink">
    <!-- Generator: sketchtool 49 (51002) - http://www.bohemiancoding.com/sketch -->
    <title>2660B6A3-7AE9-4A5C-A5F0-73BB2BF5E9E5</title>
    <desc>Created with sketchtool.</desc>
    <defs></defs>
    <g id="Page-1" stroke="none" stroke-width="1" fill="none" fill-rule="evenodd">
        <g id="j-footer" transform="translate(-1979.000000, -341.000000)" fill="#FFFFFF">
            <g id="Stacked-Group-3" transform="translate(413.000000, 244.000000)">
                <g id="Stacked-Group-6" transform="translate(0.000000, 70.000000)">
                    <g id="Group-12" transform="translate(1540.000000, 0.000000)">
                        <g id="Group" transform="translate(0.000000, 27.000000)">
                            <path d="M41.4918571,12.3092143 C41.4918571,14.0638571 40.0638571,15.4918571 38.308,15.4918571 L30.6907857,15.4918571 C28.9361429,15.4918571 27.5081429,14.0638571 27.5081429,12.3092143 L27.5081429,4.69321429 C27.5081429,2.93614286 28.9361429,1.50814286 30.6907857,1.50814286 L38.308,1.50814286 C40.0638571,1.50814286 41.4918571,2.93614286 41.4918571,4.69321429 L41.4918571,12.3092143 Z M38.308,0 C40.8956429,0 43,2.10557143 43,4.69321429 L43,12.3092143 C43,14.8956429 40.8956429,17 38.308,17 L30.6907857,17 C28.1043571,17 26,14.8968571 26,12.3092143 L26,4.69321429 C26,2.10557143 28.1043571,0 30.6907857,0 L38.308,0 Z M34.5002429,11.3723929 C32.9156,11.3723929 31.6272429,10.0840357 31.6272429,8.50060714 C31.6272429,6.91717857 32.9156,5.62882143 34.5002429,5.62882143 C36.0836714,5.62882143 37.3720286,6.91717857 37.3720286,8.50060714 C37.3720286,10.0840357 36.0836714,11.3723929 34.5002429,11.3723929 Z M34.5002429,4.12067857 C32.0850286,4.12067857 30.1191,6.08539286 30.1191,8.50060714 C30.1191,10.9170357 32.0850286,12.88175 34.5002429,12.88175 C36.9142429,12.88175 38.8801714,10.9170357 38.8801714,8.50060714 C38.8801714,6.08539286 36.9142429,4.12067857 34.5002429,4.12067857 Z M39.0643786,2.84155 C38.7741643,2.84155 38.4875929,2.95933571 38.2823786,3.16576429 C38.0771643,3.37097857 37.9581643,3.65633571 37.9581643,3.94776429 C37.9581643,4.23797857 38.0771643,4.52455 38.2823786,4.72976429 C38.4875929,4.93619286 38.7741643,5.05276429 39.0643786,5.05276429 C39.3558071,5.05276429 39.63995,4.93619286 39.8463786,4.72976429 C40.0515929,4.52455 40.1693786,4.23797857 40.1693786,3.94776429 C40.1693786,3.65633571 40.0515929,3.37097857 39.8463786,3.16576429 C39.6411643,2.95933571 39.3558071,2.84155 39.0643786,2.84155 Z" id="Combined-Shape"></path>
                        </g>
                    </g>
                </g>
            </g>
        </g>
    </g>
</svg>